{
    "asset" : {
        "generator" : "Khronos glTF Blender I/O v1.8.19",
        "version" : "2.0"
    },
    "scene" : 0,
    "scenes" : [
        {
            "name" : "Scene",
            "nodes" : [
                0
            ]
        }
    ],
    "nodes" : [
        {
            "mesh" : 0,
            "name" : "Cube"
        }
    ],
    "materials" : [
        {
            "doubleSided" : true,
            "name" : "Material",
            "pbrMetallicRoughness" : {
                "baseColorFactor" : [
                    0.8000000715255737,
                    0.730003833770752,
                    0.5420351624488831,
                    1
                ],
                "metallicFactor" : 0,
                "roughnessFactor" : 0.4000000059604645
            }
        },
        {
            "doubleSided" : true,
            "name" : "Material.002",
            "pbrMetallicRoughness" : {
                "baseColorFactor" : [
                    0.027320899069309235,
                    0.38642948865890503,
                    0.6239604353904724,
                    1
                ],
                "metallicFactor" : 0,
                "roughnessFactor" : 0.5
            }
        }
    ],
    "meshes" : [
        {
            "name" : "Cube",
            "primitives" : [
                {
                    "attributes" : {
                        "POSITION" : 0,
                        "NORMAL" : 1,
                        "TEXCOORD_0" : 2
                    },
                    "indices" : 3,
                    "material" : 0
                },
                {
                    "attributes" : {
                        "POSITION" : 4,
                        "NORMAL" : 5,
                        "TEXCOORD_0" : 6
                    },
                    "indices" : 7,
                    "material" : 1
                }
            ]
        }
    ],
    "accessors" : [
        {
            "bufferView" : 0,
            "componentType" : 5126,
            "count" : 428,
            "max" : [
                1,
                1.8663134574890137,
                1
            ],
            "min" : [
                -1,
                -1,
                -1
            ],
            "type" : "VEC3"
        },
        {
            "bufferView" : 1,
            "componentType" : 5126,
            "count" : 428,
            "type" : "VEC3"
        },
        {
            "bufferView" : 2,
            "componentType" : 5126,
            "count" : 428,
            "type" : "VEC2"
        },
        {
            "bufferView" : 3,
            "componentType" : 5123,
            "count" : 696,
            "type" : "SCALAR"
        },
        {
            "bufferView" : 4,
            "componentType" : 5126,
            "count" : 53,
            "max" : [
                0.6666666865348816,
                1.8663134574890137,
                0.6666666269302368
            ],
            "min" : [
                -0.6666666269302368,
                0.8990492224693298,
                -0.6666666865348816
            ],
            "type" : "VEC3"
        },
        {
            "bufferView" : 5,
            "componentType" : 5126,
            "count" : 53,
            "type" : "VEC3"
        },
        {
            "bufferView" : 6,
            "componentType" : 5126,
            "count" : 53,
            "type" : "VEC2"
        },
        {
            "bufferView" : 7,
            "componentType" : 5123,
            "count" : 90,
            "type" : "SCALAR"
        }
    ],
    "bufferViews" : [
        {
            "buffer" : 0,
            "byteLength" : 5136,
            "byteOffset" : 0
        },
        {
            "buffer" : 0,
            "byteLength" : 5136,
            "byteOffset" : 5136
        },
        {
            "buffer" : 0,
            "byteLength" : 3424,
            "byteOffset" : 10272
        },
        {
            "buffer" : 0,
            "byteLength" : 1392,
            "byteOffset" : 13696
        },
        {
            "buffer" : 0,
            "byteLength" : 636,
            "byteOffset" : 15088
        },
        {
            "buffer" : 0,
            "byteLength" : 636,
            "byteOffset" : 15724
        },
        {
            "buffer" : 0,
            "byteLength" : 424,
            "byteOffset" : 16360
        },
        {
            "buffer" : 0,
            "byteLength" : 180,
            "byteOffset" : 16784
        }
    ],
    "buffers" : [
        {
            "byteLength" : 16964,
            "uri" : "data:application/octet-stream;base64,"
        }
    ]
}
