{
    "asset" : {
        "generator" : "Khronos glTF Blender I/O v1.8.19",
        "version" : "2.0"
    },
    "scene" : 0,
    "scenes" : [
        {
            "name" : "Scene",
            "nodes" : [
                0,
                1,
                2,
                3,
                4
            ]
        }
    ],
    "nodes" : [
        {
            "mesh" : 0,
            "name" : "Cube.001",
            "scale" : [
                0.7417238354682922,
                1.411757469177246,
                5.511610507965088
            ],
            "translation" : [
                -2.6443963050842285,
                0,
                0.09763118624687195
            ]
        },
        {
            "mesh" : 1,
            "name" : "Cylinder.001",
            "rotation" : [
                0.05679423734545708,
                -0.8663172721862793,
                -0.222368985414505,
                0.44364500045776367
            ],
            "scale" : [
                0.3176943361759186,
                0.6620240211486816,
                0.3355900049209595
            ],
            "translation" : [
                -2.939724922180176,
                -0.15314346551895142,
                3.6268935203552246
            ]
        },
        {
            "mesh" : 2,
            "name" : "Cube.002",
            "rotation" : [
                0,
                1,
                0,
                -1.6292068494294654e-07
            ],
            "scale" : [
                0.42513611912727356,
                1.411757469177246,
                5.511610507965088
            ],
            "translation" : [
                -2.6076889038085938,
                0,
                0.3606668710708618
            ]
        },
        {
            "mesh" : 3,
            "name" : "Cylinder.002",
            "rotation" : [
                -0.006394259165972471,
                0.44421902298927307,
                0.052115097641944885,
                0.8943783044815063
            ],
            "scale" : [
                0.3176943361759186,
                0.6620240211486816,
                0.3355900049209595
            ],
            "translation" : [
                -2.939724922180176,
                -0.15314346551895142,
                -3.0598092079162598
            ]
        },
        {
            "mesh" : 4,
            "name" : "Cylinder.003",
            "rotation" : [
                0.2810628414154053,
                -0.6209295392036438,
                -0.6437391042709351,
                0.34792259335517883
            ],
            "scale" : [
                0.3197871744632721,
                1.0202393531799316,
                0.3361774981021881
            ],
            "translation" : [
                -2.939724922180176,
                -0.018810346722602844,
                0.19386473298072815
            ]
        }
    ],
    "materials" : [
        {
            "doubleSided" : true,
            "name" : "Material.001",
            "pbrMetallicRoughness" : {
                "baseColorFactor" : [
                    0.8000000715255737,
                    0.004981568548828363,
                    0.002200024900957942,
                    1
                ],
                "metallicFactor" : 0,
                "roughnessFactor" : 0.4000000059604645
            }
        },
        {
            "doubleSided" : true,
            "name" : "Material.006",
            "pbrMetallicRoughness" : {}
        },
        {
            "doubleSided" : true,
            "name" : "Material.004",
            "pbrMetallicRoughness" : {
                "baseColorFactor" : [
                    0.014996309764683247,
                    0.014996309764683247,
                    0.014996309764683247,
                    1
                ],
                "metallicFactor" : 0,
                "roughnessFactor" : 0.4000000059604645
            }
        },
        {
            "doubleSided" : true,
            "name" : "Material.007",
            "pbrMetallicRoughness" : {}
        },
        {
            "doubleSided" : true,
            "name" : "Material.008",
            "pbrMetallicRoughness" : {}
        }
    ],
    "meshes" : [
        {
            "name" : "Cube.001",
            "primitives" : [
                {
                    "attributes" : {
                        "POSITION" : 0,
                        "NORMAL" : 1,
                        "TEXCOORD_0" : 2
                    },
                    "indices" : 3,
                    "material" : 0
                }
            ]
        },
        {
            "name" : "Cylinder.001",
            "primitives" : [
                {
                    "attributes" : {
                        "POSITION" : 4,
                        "NORMAL" : 5,
                        "TEXCOORD_0" : 6
                    },
                    "indices" : 7,
                    "material" : 1
                }
            ]
        },
        {
            "name" : "Cube.005",
            "primitives" : [
                {
                    "attributes" : {
                        "POSITION" : 8,
                        "NORMAL" : 9,
                        "TEXCOORD_0" : 10
                    },
                    "indices" : 11,
                    "material" : 2
                }
            ]
        },
        {
            "name" : "Cylinder.002",
            "primitives" : [
                {
                    "attributes" : {
                        "POSITION" : 12,
                        "NORMAL" : 13,
                        "TEXCOORD_0" : 14
                    },
                    "indices" : 7,
                    "material" : 3
                }
            ]
        },
        {
            "name" : "Cylinder.003",
            "primitives" : [
                {
                    "attributes" : {
                        "POSITION" : 15,
                        "NORMAL" : 16,
                        "TEXCOORD_0" : 17
                    },
                    "indices" : 7,
                    "material" : 4
                }
            ]
        }
    ],
    "accessors" : [
        {
            "bufferView" : 0,
            "componentType" : 5126,
            "count" : 3060,
            "max" : [
                1,
                1,
                1.5178248882293701
            ],
            "min" : [
                -1,
                -1,
                -1.4437308311462402
            ],
            "type" : "VEC3"
        },
        {
            "bufferView" : 1,
            "componentType" : 5126,
            "count" : 3060,
            "type" : "VEC3"
        },
        {
            "bufferView" : 2,
            "componentType" : 5126,
            "count" : 3060,
            "type" : "VEC2"
        },
        {
            "bufferView" : 3,
            "componentType" : 5123,
            "count" : 6126,
            "type" : "SCALAR"
        },
        {
            "bufferView" : 4,
            "componentType" : 5126,
            "count" : 320,
            "max" : [
                1.0000001192092896,
                1.2658782005310059,
                1
            ],
            "min" : [
                -1,
                -1,
                -1
            ],
            "type" : "VEC3"
        },
        {
            "bufferView" : 5,
            "componentType" : 5126,
            "count" : 320,
            "type" : "VEC3"
        },
        {
            "bufferView" : 6,
            "componentType" : 5126,
            "count" : 320,
            "type" : "VEC2"
        },
        {
            "bufferView" : 7,
            "componentType" : 5123,
            "count" : 564,
            "type" : "SCALAR"
        },
        {
            "bufferView" : 8,
            "componentType" : 5126,
            "count" : 517,
            "max" : [
                1,
                0.6831994652748108,
                1.367152214050293
            ],
            "min" : [
                -0.016962159425020218,
                -0.6831994652748108,
                -1.261889934539795
            ],
            "type" : "VEC3"
        },
        {
            "bufferView" : 9,
            "componentType" : 5126,
            "count" : 517,
            "type" : "VEC3"
        },
        {
            "bufferView" : 10,
            "componentType" : 5126,
            "count" : 517,
            "type" : "VEC2"
        },
        {
            "bufferView" : 11,
            "componentType" : 5123,
            "count" : 1503,
            "type" : "SCALAR"
        },
        {
            "bufferView" : 12,
            "componentType" : 5126,
            "count" : 320,
            "max" : [
                1.0000001192092896,
                1.2658782005310059,
                1
            ],
            "min" : [
                -1,
                -1,
                -1
            ],
            "type" : "VEC3"
        },
        {
            "bufferView" : 13,
            "componentType" : 5126,
            "count" : 320,
            "type" : "VEC3"
        },
        {
            "bufferView" : 14,
            "componentType" : 5126,
            "count" : 320,
            "type" : "VEC2"
        },
        {
            "bufferView" : 15,
            "componentType" : 5126,
            "count" : 320,
            "max" : [
                1.0000001192092896,
                1.2658782005310059,
                1
            ],
            "min" : [
                -1,
                -1,
                -1
            ],
            "type" : "VEC3"
        },
        {
            "bufferView" : 16,
            "componentType" : 5126,
            "count" : 320,
            "type" : "VEC3"
        },
        {
            "bufferView" : 17,
            "componentType" : 5126,
            "count" : 320,
            "type" : "VEC2"
        }
    ],
    "bufferViews" : [
        {
            "buffer" : 0,
            "byteLength" : 36720,
            "byteOffset" : 0
        },
        {
            "buffer" : 0,
            "byteLength" : 36720,
            "byteOffset" : 36720
        },
        {
            "buffer" : 0,
            "byteLength" : 24480,
            "byteOffset" : 73440
        },
        {
            "buffer" : 0,
            "byteLength" : 12252,
            "byteOffset" : 97920
        },
        {
            "buffer" : 0,
            "byteLength" : 3840,
            "byteOffset" : 110172
        },
        {
            "buffer" : 0,
            "byteLength" : 3840,
            "byteOffset" : 114012
        },
        {
            "buffer" : 0,
            "byteLength" : 2560,
            "byteOffset" : 117852
        },
        {
            "buffer" : 0,
            "byteLength" : 1128,
            "byteOffset" : 120412
        },
        {
            "buffer" : 0,
            "byteLength" : 6204,
            "byteOffset" : 121540
        },
        {
            "buffer" : 0,
            "byteLength" : 6204,
            "byteOffset" : 127744
        },
        {
            "buffer" : 0,
            "byteLength" : 4136,
            "byteOffset" : 133948
        },
        {
            "buffer" : 0,
            "byteLength" : 3006,
            "byteOffset" : 138084
        },
        {
            "buffer" : 0,
            "byteLength" : 3840,
            "byteOffset" : 141092
        },
        {
            "buffer" : 0,
            "byteLength" : 3840,
            "byteOffset" : 144932
        },
        {
            "buffer" : 0,
            "byteLength" : 2560,
            "byteOffset" : 148772
        },
        {
            "buffer" : 0,
            "byteLength" : 3840,
            "byteOffset" : 151332
        },
        {
            "buffer" : 0,
            "byteLength" : 3840,
            "byteOffset" : 155172
        },
        {
            "buffer" : 0,
            "byteLength" : 2560,
            "byteOffset" : 159012
        }
    ],
    "buffers" : [
        {
            "byteLength" : 161572,
            "uri" : "data:application/octet-stream;base64,"
        }
    ]
}
